<svg xmlns="http://www.w3.org/2000/svg" viewBox="0 0 48 48" width="144px" height="144px"><path d="M38,6H10C9.724,6,9.454,6.028,9.194,6.081c-0.521,0.107-1.005,0.314-1.43,0.602C7.551,6.827,7.352,6.991,7.172,7.172	C6.81,7.534,6.517,7.964,6.314,8.443C6.112,8.922,6,9.448,6,10v28c0,0.552,0.112,1.078,0.314,1.557	c0.202,0.479,0.495,0.91,0.857,1.271c0.181,0.181,0.379,0.345,0.592,0.488c0.426,0.288,0.909,0.495,1.43,0.602	C9.454,41.972,9.724,42,10,42h28c2.209,0,4-1.791,4-4V10C42,7.791,40.209,6,38,6z M25.906,24.781h-3.994v11.436h-3.164V24.781	h-3.975v-2.568h11.133V24.781z M36.253,34.249c-0.296,0.531-0.698,0.96-1.206,1.289s-1.099,0.565-1.772,0.708	s-1.385,0.215-2.134,0.215c-0.768,0-1.499-0.065-2.192-0.195s-1.294-0.326-1.802-0.586v-3.125c0.566,0.475,1.182,0.832,1.846,1.069	s1.334,0.356,2.012,0.356c0.397,0,0.744-0.036,1.04-0.107s0.543-0.171,0.742-0.298s0.347-0.277,0.444-0.449s0.146-0.36,0.146-0.562	c0-0.273-0.078-0.518-0.234-0.732s-0.37-0.414-0.64-0.596s-0.591-0.358-0.962-0.527s-0.771-0.342-1.201-0.518	c-1.094-0.456-1.909-1.012-2.446-1.67s-0.806-1.452-0.806-2.383c0-0.729,0.146-1.356,0.439-1.88s0.692-0.956,1.196-1.294	s1.089-0.587,1.753-0.747c0.664-0.16,1.367-0.239,2.109-0.239c0.729,0,1.375,0.044,1.938,0.132s1.083,0.223,1.558,0.405v2.92	c-0.234-0.163-0.49-0.306-0.767-0.43s-0.562-0.226-0.854-0.308s-0.584-0.142-0.874-0.181s-0.565-0.059-0.825-0.059	c-0.358,0-0.684,0.034-0.977,0.103s-0.541,0.165-0.742,0.288s-0.358,0.272-0.469,0.444s-0.166,0.366-0.166,0.581	c0,0.234,0.062,0.444,0.186,0.63s0.299,0.361,0.527,0.527s0.504,0.329,0.83,0.488s0.693,0.324,1.104,0.493	c0.56,0.234,1.063,0.483,1.509,0.747s0.829,0.562,1.147,0.894s0.563,0.711,0.732,1.138s0.254,0.923,0.254,1.489	C36.697,33.062,36.549,33.718,36.253,34.249z" fill="inherit"/></svg>